<svg width="429" height="341" viewBox="0 0 429 341" fill="none" xmlns="http://www.w3.org/2000/svg">
<path d="M44.7379 281.44V228.56H37.2676V292.1H37.6033L79.7395 237.961V291.009H87.2099V227.385H86.8741L44.7379 281.44Z" fill="#554534"/>
<path d="M420.103 228.56C404.827 228.56 396.097 238.632 396.097 252.146C396.097 264.569 403.651 274.138 416.997 275.397C411.458 277.159 407.932 279.845 405.162 282.699C403.148 284.798 398.447 288.743 395.51 288.743C392.74 288.743 390.557 286.98 390.557 283.622H390.138C390.138 289.246 394.167 292.016 398.615 292.016C410.786 292.016 411.709 275.481 421.53 275.481V290.925H429V228.476H420.103V228.56ZM421.446 274.641H420.103C409.695 274.641 403.568 265.324 403.568 252.062C403.568 238.884 409.611 229.399 420.103 229.399H421.446V274.641Z" fill="#554534"/>
<path d="M125.821 227.385C107.103 227.385 93.4214 241.906 93.4214 259.784C93.4214 277.747 107.103 292.184 125.821 292.184C144.539 292.184 158.22 277.747 158.22 259.784C158.22 241.906 144.539 227.385 125.821 227.385ZM125.821 291.261C111.468 291.261 101.311 277.159 101.311 259.784C101.311 242.409 111.468 228.308 125.821 228.308C140.174 228.308 150.33 242.409 150.33 259.784C150.414 277.159 140.174 291.261 125.821 291.261Z" fill="#554534"/>
<path d="M8.81334 244.004H7.47036V229.483H24.6774V228.56H0V291.009H8.81334C24.0898 291.009 32.8192 280.937 32.8192 267.423C32.8192 254.077 24.0898 244.004 8.81334 244.004ZM8.81334 290.086H7.47036V244.844H8.81334C19.2215 244.844 25.3489 254.161 25.3489 267.423C25.3489 280.601 19.2215 290.086 8.81334 290.086Z" fill="#554534"/>
<path d="M307.208 233.008H305.865V225.874H298.394V233.008H297.051C281.775 233.008 273.045 244.843 273.045 258.357C273.045 271.703 281.775 283.622 297.051 283.622H298.394V291.008H305.865V283.622H307.208C322.484 283.622 331.214 271.787 331.214 258.357C331.13 244.843 322.4 233.008 307.208 233.008ZM298.31 282.699H296.967C286.559 282.699 280.432 271.619 280.432 258.357C280.432 245.179 286.475 233.931 296.967 233.931H298.31V282.699ZM307.208 282.699H305.865V233.931H307.208C317.616 233.931 323.743 245.179 323.743 258.357C323.659 271.619 317.616 282.699 307.208 282.699Z" fill="#554534"/>
<path d="M164.432 291.009H171.986V229.399H189.193V228.56H164.432V291.009Z" fill="#554534"/>
<path d="M202.455 228.56H193.642V291.009H201.112V275.565H202.455C217.732 275.565 226.461 265.492 226.461 252.146C226.461 238.632 217.732 228.56 202.455 228.56ZM202.455 274.641H201.112V229.399H202.455C212.864 229.399 218.991 238.884 218.991 252.062C218.991 265.408 212.864 274.641 202.455 274.641Z" fill="#554534"/>
<path d="M221.089 291.009H222.013L226.293 280.853H263.813L268.178 291.009H275.648L248.369 226.797L221.089 291.009ZM226.629 279.929L245.095 236.618L263.477 279.929H226.629Z" fill="#554534"/>
<path d="M343.132 281.44V228.56H335.662V292.1H335.998L378.05 237.961V291.009H385.604V227.385H385.185L343.132 281.44Z" fill="#554534"/>
<path d="M110.041 323.492L103.41 331.298L110.293 339.859H108.027L101.312 331.382L107.775 323.575H110.041V323.492ZM98.8774 339.775V323.492H100.892V339.775H98.8774ZM96.2754 331.298L89.6444 323.492H91.9107L98.3738 331.298L91.6589 339.775H89.3926L96.2754 331.298ZM116.42 339.775H114.658V323.492H116.672V336.502L126.576 323.492H128.339V339.775H126.325V326.765L116.42 339.775ZM144.707 339.775V325.338H138.831L138.579 328.444C138.412 330.458 138.16 332.221 137.824 333.648C137.488 335.075 137.236 336.25 136.901 337.005C136.565 337.845 136.145 338.432 135.726 338.936C135.306 339.356 134.802 339.691 134.383 339.775C133.963 339.859 133.459 339.859 132.872 339.859V337.845C133.207 337.845 133.459 337.845 133.627 337.761C133.879 337.677 134.131 337.425 134.467 337.005C134.802 336.586 135.054 335.998 135.39 335.243C135.642 334.487 135.893 333.396 136.145 331.969C136.397 330.542 136.565 328.78 136.733 326.765L136.985 323.492H146.721V339.775H144.707ZM151.757 331.633C151.757 329.283 152.513 327.269 154.108 325.674C155.703 324.079 157.633 323.24 160.067 323.24C162.417 323.24 164.432 323.995 166.027 325.59C167.622 327.185 168.377 329.199 168.377 331.633C168.377 334.068 167.622 335.998 166.027 337.593C164.432 339.188 162.501 339.943 160.067 339.943C157.717 339.943 155.703 339.188 154.108 337.593C152.513 336.082 151.757 334.068 151.757 331.633ZM153.856 331.633C153.856 333.48 154.443 334.991 155.619 336.25C156.794 337.509 158.305 338.097 160.067 338.097C161.914 338.097 163.425 337.509 164.516 336.25C165.691 334.991 166.279 333.48 166.279 331.633C166.279 329.787 165.691 328.192 164.516 326.933C163.341 325.674 161.83 325.086 160.067 325.086C158.305 325.086 156.794 325.674 155.619 326.933C154.443 328.192 153.856 329.787 153.856 331.633ZM175.176 339.775H173.413V323.492H175.428V336.502L185.332 323.492H187.095V339.775H185.08V326.765L175.176 339.775ZM176.099 319.798H177.946C178.281 320.806 179.121 321.309 180.464 321.309C181.807 321.309 182.646 320.806 182.898 319.798H184.745C184.661 320.638 184.157 321.393 183.402 321.897C182.562 322.4 181.639 322.736 180.464 322.736C179.289 322.736 178.281 322.484 177.526 321.897C176.687 321.309 176.183 320.638 176.099 319.798ZM210.597 323.492L203.295 331.13L210.933 339.775H208.415L201.028 331.298L208.163 323.492H210.597ZM198.678 339.775V323.492H200.693V339.775H198.678ZM213.115 331.633C213.115 329.283 213.871 327.269 215.465 325.674C217.06 324.079 218.991 323.24 221.425 323.24C223.775 323.24 225.79 323.995 227.384 325.59C228.979 327.185 229.735 329.199 229.735 331.633C229.735 334.068 228.979 335.998 227.384 337.593C225.79 339.188 223.859 339.943 221.425 339.943C219.075 339.943 217.06 339.188 215.465 337.593C213.955 336.082 213.115 334.068 213.115 331.633ZM215.214 331.633C215.214 333.48 215.801 334.991 216.976 336.25C218.151 337.509 219.662 338.097 221.425 338.097C223.271 338.097 224.782 337.509 225.874 336.25C227.049 334.991 227.636 333.48 227.636 331.633C227.636 329.787 227.049 328.192 225.874 326.933C224.698 325.674 223.188 325.086 221.425 325.086C219.662 325.086 218.151 325.674 216.976 326.933C215.801 328.192 215.214 329.787 215.214 331.633ZM234.855 339.775V323.492H236.869L242.997 331.885L248.872 323.492H250.719V339.775H248.704V326.597L242.913 334.739H242.577L236.701 326.681V339.775H234.855ZM267.926 339.775V325.338H259.112V339.775H257.098V323.492H269.94V339.775H267.926ZM286.308 339.775V325.338H280.432L280.18 328.444C280.013 330.458 279.761 332.221 279.425 333.648C279.089 335.075 278.838 336.25 278.502 337.005C278.166 337.845 277.746 338.432 277.327 338.936C276.907 339.356 276.403 339.691 275.984 339.775C275.564 339.859 275.06 339.859 274.473 339.859V337.845C274.809 337.845 275.06 337.845 275.228 337.761C275.48 337.677 275.732 337.425 276.068 337.005C276.403 336.586 276.739 335.998 276.991 335.243C277.243 334.487 277.495 333.396 277.746 331.969C277.998 330.542 278.166 328.78 278.334 326.765L278.586 323.492H288.322V339.775H286.308ZM294.618 339.775V323.492H303.851V325.338H296.632V330.626H303.179V332.473H296.632V337.929H304.102V339.775H294.618ZM321.477 323.492L314.175 331.13L321.813 339.775H319.295L311.909 331.298L319.043 323.492H321.477ZM309.558 339.775V323.492H311.573V339.775H309.558ZM336.586 336.754L337.341 338.264C336.838 338.852 336.082 339.272 335.159 339.607C334.236 339.943 333.228 340.111 332.221 340.111C329.787 340.111 327.773 339.356 326.262 337.845C324.751 336.334 323.995 334.319 323.995 331.717C323.995 329.283 324.751 327.353 326.178 325.758C327.605 324.163 329.619 323.408 332.137 323.408C334.236 323.408 335.83 323.911 337.09 325.002L336.166 326.513C335.075 325.674 333.732 325.338 332.137 325.338C330.375 325.338 328.948 325.926 327.773 327.185C326.597 328.36 326.094 329.955 326.094 331.885C326.094 333.816 326.681 335.411 327.857 336.586C329.032 337.761 330.542 338.432 332.473 338.432C333.984 338.18 335.411 337.677 336.586 336.754Z" fill="#554534"/>
<path fill-rule="evenodd" clip-rule="evenodd" d="M277.494 161.83V30.6369L223.02 53.4676V33.155L144.035 0V133.627L198.426 156.458V197.335L277.41 164.18L277.494 161.83ZM273.298 37.016V134.299C269.436 122.799 263.057 113.65 254.748 107.355C245.934 100.64 235.106 97.3665 223.103 97.954V58.1681L273.298 37.016ZM202.707 106.683C208.247 104.501 213.703 103.074 218.823 102.403V160.487L202.707 153.688V106.683ZM202.707 102.151V66.5617L218.823 59.7629V98.1219C213.619 98.7934 208.247 100.136 202.707 102.151ZM148.316 130.857V6.37918L218.907 36.0088V55.2303L198.51 63.7918V151.925L148.316 130.857ZM202.707 158.304L223.02 166.866V102.067C234.183 101.563 244.088 104.585 252.146 110.628C264.988 120.365 273.214 137.908 273.298 161.494L202.707 191.04V158.304Z" fill="#554534"/>
</svg>
